<?xml version="1.0" standalone="no"?>
<!DOCTYPE svg PUBLIC "-//W3C//DTD SVG 20010904//EN"
 "http://www.w3.org/TR/2001/REC-SVG-20010904/DTD/svg10.dtd">
<svg version="1.0" xmlns="http://www.w3.org/2000/svg"
 width="96.000000pt" height="96.000000pt" viewBox="0 0 96.000000 96.000000"
 preserveAspectRatio="xMidYMid meet">
<metadata>
Created by potrace 1.10, written by Peter Selinger 2001-2011
</metadata>
<g transform="translate(0.000000,96.000000) scale(0.100000,-0.100000)"
fill="#000000" stroke="none">
<path d="M285 766 l-180 -113 -3 -233 c-2 -163 1 -237 9 -246 9 -11 57 -14
234 -14 204 0 225 -2 246 -19 18 -14 24 -29 24 -57 0 -32 5 -41 32 -57 31 -18
32 -18 52 2 27 27 55 27 82 0 20 -20 21 -20 52 -2 26 16 32 25 32 55 0 40 17
65 48 70 19 3 22 9 22 48 0 39 -3 45 -23 48 -43 6 -50 35 -51 221 -1 96 -4
178 -7 182 -8 14 -361 229 -375 229 -8 0 -95 -51 -194 -114z m287 27 c90 -57
83 -62 -93 -62 -118 1 -163 8 -146 26 24 24 125 82 144 82 13 1 55 -20 95 -46z
m186 -165 l3 -68 39 25 c22 14 41 25 43 25 7 0 -6 -216 -14 -220 -4 -3 -4 -12
1 -20 6 -8 10 -28 10 -44 0 -25 -3 -27 -22 -22 -48 15 -104 16 -128 4 -35 -19
-70 -75 -70 -113 l0 -32 -40 10 c-36 10 -40 14 -40 44 0 28 3 33 25 33 26 0
62 41 50 60 -3 5 -21 17 -38 26 l-32 17 24 -26 23 -26 -31 -29 c-28 -25 -36
-41 -40 -73 -2 -11 -30 -19 -46 -13 -9 4 -13 14 -10 28 10 43 -56 81 -107 62
-20 -7 -37 -7 -58 1 -33 13 -45 4 -52 -37 -5 -24 -5 -24 -19 10 l-14 35 -6
-45 -6 -45 -1 43 c-2 43 -2 43 -57 46 -19 1 -20 9 -22 136 -1 74 -4 147 -7
163 -3 15 -3 27 -1 27 15 0 69 -42 79 -61 16 -31 255 -173 326 -194 24 -6 24
-6 -5 19 -16 14 -33 25 -38 26 -4 0 -68 36 -142 80 l-135 81 0 63 c0 34 3 66
7 69 4 4 128 6 277 5 l271 -3 3 -67z m45 -352 c69 -64 29 -176 -64 -176 -53 0
-99 46 -99 100 0 84 103 132 163 76z m-629 -20 c3 -13 9 -32 13 -43 6 -16 5
-16 -10 -4 -14 11 -20 11 -32 1 -18 -15 -19 -7 -3 37 14 39 24 42 32 9z m118
0 c6 4 14 1 18 -7 7 -10 11 -10 24 0 8 7 20 10 26 6 16 -10 12 -35 -7 -36 -15
0 -15 -2 2 -9 16 -6 12 -8 -17 -8 -30 1 -38 5 -38 20 0 26 -18 22 -22 -4 -2
-18 -10 -23 -33 -24 -29 -2 -29 -2 -2 3 24 4 27 9 28 46 1 23 3 34 6 24 2 -9
9 -14 15 -11z m156 -19 c3 -16 -27 -57 -43 -57 -3 0 -5 17 -5 39 0 33 3 38 22
37 14 -1 24 -9 26 -19z m439 -54 c-16 -16 -17 -15 -17 17 0 32 1 33 17 17 16
-16 16 -18 0 -34z m-206 -93 c24 -13 24 -26 2 -34 -18 -7 -47 20 -37 35 7 11
11 11 35 -1z m138 -31 c-24 -14 -36 11 -14 27 18 13 20 13 23 -2 2 -9 -2 -20
-9 -25z"/>
<path d="M617 478 c-65 -39 -116 -73 -113 -75 11 -11 256 122 256 139 0 17
-29 4 -143 -64z"/>
<path d="M690 383 c0 -10 35 -32 51 -33 9 0 24 9 34 20 18 20 18 21 -6 12 -13
-5 -36 -6 -51 -1 -16 4 -28 5 -28 2z"/>
<path d="M700 240 c-11 -11 -20 -29 -20 -40 0 -26 34 -60 60 -60 26 0 60 34
60 60 0 11 -9 29 -20 40 -11 11 -29 20 -40 20 -11 0 -29 -9 -40 -20z m56 -31
c8 -14 -18 -31 -30 -19 -9 9 0 30 14 30 5 0 12 -5 16 -11z"/>
</g>
</svg>
